<svg width="512" height="512" viewBox="0 0 512 512" fill="none" xmlns="http://www.w3.org/2000/svg">
<path d="M252.889 3.12702C271.789 2.06578 280.197 7.74732 295.641 16.6908L492.899 130.55C500.254 134.813 510.888 139.744 511.803 149.42C512.559 157.434 506.297 163.085 499.96 166.777C484.886 175.561 469.72 184.229 454.596 192.949L309.803 276.529C300.307 282.011 290.525 287.836 280.911 293.09C274.96 296.339 266.653 297.718 259.966 298.352C239.423 298.903 233.045 294.498 216.161 284.638L19.2791 171.024C12.6961 167.217 3.10507 162.575 0.766957 155.089C-2.99326 143.05 8.72333 136.261 17.4197 131.48C21.9826 128.972 26.2993 126.365 30.6739 123.849L206.81 22.1622C223.124 12.7341 233.452 4.2593 252.889 3.12702Z" fill="#FF2500"/>
<path d="M458.044 216.251L487.246 233.072C493.832 236.86 505.693 242.642 509.561 248.895C519.393 264.802 497.032 274.348 486.314 280.506L297.741 389.308C278.513 400.417 266.947 407.759 243.368 403.01C238.783 402.123 234.351 400.581 230.205 398.429C219.589 393.061 204.587 383.748 193.986 377.628L48.488 293.662C35.9004 286.403 23.1296 279.169 10.6393 271.748C7.54608 269.731 4.39276 267.471 2.44777 264.234C-7.23605 248.123 14.2479 239.089 24.5189 233.177L53.5846 216.387C55.3864 216.728 77.9107 230.152 80.8389 231.846L179.149 288.614L205.909 304.005C215.546 309.616 226.5 316.929 237.145 319.796C249.912 323.234 264.511 323.137 277.136 319.111C285.939 316.303 296.292 309.675 304.549 304.909L458.044 216.251Z" fill="#FF2500"/>
<path d="M458.132 322.099C467.985 328.075 478.292 333.535 488.187 339.453C494.651 343.315 506.192 348.657 509.884 355.227C518.591 370.727 497.939 379.616 487.36 385.71L298.182 494.874C295.515 496.412 292.768 497.938 290.134 499.518C282.755 503.939 275.54 507.886 266.879 509.164C254.061 511.059 240.142 509.962 228.669 503.49C223.547 500.598 218.48 497.551 213.38 494.605L188.704 480.407L48.488 399.475C35.7429 392.137 22.7852 384.807 10.1837 377.237C7.16557 375.333 3.77118 372.606 2.05256 369.403C-6.43133 353.592 13.9913 345.068 24.5609 338.986L53.5145 322.301C55.7799 322.712 77.6781 335.83 80.878 337.679L207.499 410.798C216.562 416.056 226.995 422.936 237.085 425.618C252.499 429.715 271.68 428.749 285.989 421.305C292.159 418.098 298.379 414.32 304.393 410.832L458.132 322.099Z" fill="#FF2500"/>
</svg>
